<!DOCTYPE svg PUBLIC "-//W3C//DTD SVG 1.1//EN" "http://www.w3.org/Graphics/SVG/1.1/DTD/svg11.dtd">
<!-- Uploaded to: SVG Repo, www.svgrepo.com, Transformed by: SVG Repo Mixer Tools -->
<svg fill="#ffffff" version="1.1" id="Capa_1" xmlns="http://www.w3.org/2000/svg" xmlns:xlink="http://www.w3.org/1999/xlink" width="800px" height="800px" viewBox="0 0 557.533 557.532" xml:space="preserve">
<g id="SVGRepo_bgCarrier" stroke-width="0"/>
<g id="SVGRepo_tracerCarrier" stroke-linecap="round" stroke-linejoin="round"/>
<g id="SVGRepo_iconCarrier"> <g> <path d="M424.134,509.451H133.397c2.304,26.89,24.9,48.081,52.374,48.081h185.991C399.244,557.532,421.83,536.351,424.134,509.451z "/> <path d="M371.761,0H185.771c-29.003,0-52.603,23.6-52.603,52.603v408.453h30.495V78.173h230.208v382.892h30.494V52.613 C424.365,23.6,400.765,0,371.761,0z M306.21,44.599h-54.889c-1.979,0-3.586-1.606-3.586-3.586s1.607-3.586,3.586-3.586h54.889 c1.979,0,3.586,1.606,3.586,3.586S308.19,44.599,306.21,44.599z M350.648,54.057c-7.201,0-13.054-5.853-13.054-13.053 c0-7.201,5.853-13.053,13.054-13.053c7.189,0,13.053,5.852,13.053,13.053C363.691,48.204,357.837,54.057,350.648,54.057z"/> <rect x="133.167" y="470.628" width="291.197" height="29.271"/> </g> </g>
</svg>