<svg width="120" height="120" viewBox="0 0 120 120" xmlns="http://www.w3.org/2000/svg" role="img" aria-label="Playwright black icon">
  <rect width="120" height="120" rx="24" fill="none"/>

  <path d="M27 32C37 25 50 25 60 33V60C60 75 49 87 34 90C23 80 18 66 20 51C21 43 23 37 27 32Z"
        fill="#000"/>

  <path d="M60 33C70 25 83 25 93 32C97 37 99 43 100 51C102 66 97 80 86 90C71 87 60 75 60 60V33Z"
        fill="#000"/>

  <circle cx="40" cy="51" r="4.2" fill="#fff"/>
  <circle cx="80" cy="51" r="4.2" fill="#fff"/>

  <path d="M33 68C39 75 50 75 56 68"
        fill="none"
        stroke="#fff"
        stroke-width="5"
        stroke-linecap="round"/>

  <path d="M66 70C72 64 82 64 88 70"
        fill="none"
        stroke="#fff"
        stroke-width="5"
        stroke-linecap="round"/>
</svg>
